<svg height="256pt" preserveAspectRatio="xMidYMid meet" viewBox="0 0 256 256" width="256pt" xmlns="http://www.w3.org/2000/svg"><g transform="matrix(.1 0 0 -.1 0 256)"><path style="fill:rgba(1,2,8,0.86);" d="m1089 2465c-149-23-342-98-455-176-44-30-56-53-50-99 2-14 4-33 5-43 0-10 9-21 19-24 30-12 37-27 39-75l1-48h-35c-25 0-40-7-58-27-15-18-23-22-23-13 2 37-4 47-37 60-34 13-45 33-25 45 6 3 10 0 10-7s7 0 15 16c19 36 30 102 18 109-4 3-32-15-61-40l-52-45v-62c0-48-4-67-18-79-21-19-45-21-72-7-17 9-24 1-60-59-22-38-40-77-40-85 0-9-4-16-10-16-5 0-10-8-10-17 0-10-7-27-15-37-19-25-19-56-1-56s29 31 20 54c-3 9-1 16 5 16 8 0 11-16 10-43-2-41-4-43-30-39s-29 1-49-64c-29-94-52-269-47-351 8-107 20-194 37-263 25-103 31-119 43-116 6 1 9 1 5-1-14-8-8-33 7-33 8 0 15-7 15-15s5-15 11-15c8 0 8-4 0-13-8-10-4-27 15-68 37-76 127-209 142-209 8 0 12 16 12 45 0 43-1 45-30 45-37 0-50 23-50 88 0 35 5 54 18 65 22 20 58 22 68 5 10-16 22 17 23 65l1 37h-50c-51 0-69 17-30 27 18 5 21 13 19 59-2 51-4 53-26 48-34-9-28 10 11 31 36 20 38 43 8 78-15 16-14 17 3 11 13-5 16-4 11 5-5 7-14 10-22 7s-33 4-57 17l-42 22 28 9c21 8 27 16 27 40s-3 27-10 16c-5-8-10-13-11-10-14 81-1 124 28 95 16-17 48-21 38-5-3 6 0 10 8 10 9 0 16 13 19 35 3 29 1 35-15 35-10 0-32 8-50 17l-32 17 30 6c22 4 31 11 33 29 3 20 0 23-17 18-11-2-22 0-24 7-5 14-57-32-57-50 0-7-5-16-11-20-8-4-10 9-8 45 4 50 3 51-23 51-16 0-28 5-28 10 0 6 5 10 10 10 6 0 10 11 10 25s-5 25-11 25c-5 0-7 5-4 10 15 25 35 9 35-28 0-31 4-38 20-39 15-1 22 6 27 28 7 37 21 46 39 27 21-20 70-11 88 17 9 13 22 41 30 62 30 84 29 79 14 63-13-15-38-25-38-15 0 4 7 20 16 37 12 24 13 32 3 38-8 6 9 28 57 74 65 64 69 66 77 44 5-14 4-24-2-26-22-7-11-32 13-32 29 0 35 8 38 45 2 18 11 31 25 38 33 15 72-22 65-61-5-24-3-25 11-14 9 8 21 11 27 7 5-3 10-1 10 4 0 6 5 11 10 11 6 0 10-7 10-15 0-11 18-4 62 26 81 56 133 103 159 147 38 64 132 173 169 198 19 13 46 32 60 43s36 22 50 26c20 5 15-3-27-42-40-37-50-52-42-64 10-19-2-32-38-43-13-4-23-15-23-25s-20-38-45-63-45-49-45-52 22 9 49 28c57 40 131 79 137 73 3-3-16-15-41-27-26-12-49-29-52-36-3-8-11-14-18-14-32 0-188-147-206-195-6-16-15-39-19-50-30-74-40-113-49-182-10-86-5-242 9-287 12-36 12-77 1-95-6-10-13-6-27 18-10 17-26 31-36 31-16 0-17-6-13-42l6-43-17 30c-28 49-59 62-48 20 4-15 1-32-7-42-8-9-13-18-11-20 3-3-3-35-20-103-13-50-53-107-63-89-4 6-14 8-22 5s-11-1-8 4c3 6 15 10 25 10 27 0 39 99 16 135-17 26-39 35-30 12 2-7-6-25-20-40-13-14-21-28-18-31s-1-6-8-6c-8 0-3-8 10-20 13-11 18-20 12-20-7 0-12-6-12-14s-6-17-12-19c-10-4-10-6 0-6 6-1 12-5 12-11 0-14-33-13-47 1-9 9-14 2-19-27-5-22-7-45-5-53 1-8-3-17-9-21-7-4-14-32-16-61-3-30-7-59-9-66s0-15 6-18c11-7 8-43-5-64-6-10-5-12 2-7 13 8 16-6 5-18-4-4-9-19-11-34s-8-30-14-33c-15-9-16-99-2-129 7-14 26-38 43-54 27-26 32-27 48-15 16 13 17 12 5-3-16-20 1-38 103-108 317-215 705-267 1071-142 163 56 379 188 411 252 7 14 13 21 13 15 0-5 9 0 20 13 10 13 16 30 13 37-3 9 1 15 11 15 9 0 16 5 16 10 0 6-6 10-12 10-10 0-10 2 0 9 9 5 12 23 9 51-2 24 2 55 8 68 19 36 8 59-31 67-31 5-49 25-23 25 7 0 9 20 4 63-4 44-3 58 4 47 9-13 11-13 11 3 0 9 5 17 11 17 8 0 8 4 0 14-6 8-10 20-9 27 2 8-4 13-12 11-12-3-13-1-2 9 17 18 15 27-5 32-17 4-17 5-1 6 14 1 12 7-12 29-16 16-26 32-22 36s-1 13-11 20c-9 7-18 25-19 40-2 24-18 39-18 16 0-5-5-10-11-10s-9 6-6 14-1 17-9 20c-9 3-12 10-9 16 3 5-3 10-14 10-12 0-21-5-21-11 0-5-5-7-11-3-7 4-7 9-2 13 6 3 13 18 17 33 6 27 5 28-33 28-34 0-42-4-55-32-9-17-16-37-16-45 0-7-5-13-11-13-7 0-9 23-6 69 2 38 2 73-2 79-7 11-80 36-87 29-3-2 6-7 18-10 18-5 23-13 22-34-1-18-6-27-15-25-35 9-37 22-38 226-1 196-2 207-31 305-33 110-59 158-111 207-44 41-167 124-183 124-8 0-19 7-26 15-11 13-10 14 6 8 10-3 34-15 53-25 27-15 32-16 28-4-3 8-1 16 5 18 7 3 1 14-12 26-26 24-40 28-40 12 0-5-5-10-11-10s-8 8-4 19c4 14 0 23-15 31-12 6-19 14-16 17s12 0 20-6c10-9 16-9 21-1 8 12-15 33-57 52-17 8-28 21-28 32s-3 17-6 13c-8-8-34 18-34 34 0 9-3 9-14 0-9-8-16-8-20-2-9 14 11 23 35 16 82-26 212-155 290-286 37-62 49-73 110-105 38-20 69-40 69-45 0-16 18-9 23 9 3 13 7 11 16-12 6-16 14-26 18-23 3 4 11-1 18-9 9-14 16-14 33-5 19 10 23 9 29-6 4-10 11-21 17-25 7-5 7-8-1-8-7 0-13-5-13-10 0-7 6-7 19-1 16 9 20 6 26-16 4-17 2-29-4-31s-11-8-11-14 7-8 15-4c8 3 15 1 15-4 0-6 5-10 10-10 6 0 10 8 10 17s2 14 6 11c4-5 8-28 13-75 1-9 10-8 36 3 35 14 35 14 23-6-16-25-1-54 31-58 17-3 19-7 11-23-8-15-7-19 5-19 8 0 14-6 12-12-1-7 5-11 13-9 24 5 44 9 53 10 4 1 7 8 7 16s9 15 21 15c11 0 17-4 14-10-3-5 3-10 14-10 18 0 20-3 9-19-14-23 2-68 27-78 24-8 25-3 9 57-16 61-18 98-4 65 7-17 9-17 9-3 1 25 46 51 75 44 31-8 49-59 40-115-8-48-19-56-89-64-82-9-105-22-105-58 0-23 5-32 21-36 15-4 17-8 8-14-10-6-10-11 0-23 16-20 31-12 32 17 0 12 6-2 14-31 16-67 4-254-19-291-7-10-10-10-16-1-5 9-10 5-15-11-4-13-15-43-26-66-30-66-24-90 12-57 17 16 18 15 9-16-10-35-20-51-20-32 0 7-7 12-15 12-17 0-21-55-5-65 7-4 8-24 4-51-3-24-3-79 1-120 6-64 9-74 20-63 26 26 65 84 84 125 11 23 24 45 30 48 6 4 11 26 11 49 0 32-3 38-12 29-14-14-28-16-28-2 0 16 56 40 67 29 14-14 38 49 69 180 21 87 25 134 27 266 1 98-3 173-10 195-7 19-17 62-23 95s-18 84-27 113l-16 52h-43c-24 0-44 5-44 10 0 6 9 10 20 10 17 0 20 7 20 39 0 50-8 71-27 71-10 0-13 6-9 15 8 21-89 159-174 249-71 75-199 176-223 176-8 0-17 7-21 15-3 8-15 15-26 15s-20 4-20 9c0 13-150 78-245 106-156 45-347 56-516 30zm557-400c10-8 15-14 9-14-5 0-19 6-29 14-11 8-15 15-10 15 6 0 19-7 30-15zm272-47c7-7 12-28 12-48 0-41-14-60-46-60-24 0-34 17-34 56 0 53 38 82 68 52zm-1443-8c3-5 1-10-4-10-6 0-11 5-11 10 0 6 2 10 4 10 3 0 8-4 11-10zm1298-76c7-8-3-34-13-34-5 0-8 9-7 20 1 20 8 25 20 14zm397-73c0-30 5-51 13-54 6-3-4-5-23-5s-27 2-17 5c13 3 17 15 17 48 0 38-3 44-17 39-15-5-16-4-3 5 26 18 30 13 30-38zm17-236c14-10 11-13-17-19-19-3-38-2-44 4-7 7-5 10 6 10 22 0 31 80 8 80-11 1-10 4 5 16 19 14 20 13 23-32 2-29 9-52 19-59zm-1967-35c0-11-4-20-10-20-5 0-10 9-10 20s5 20 10 20c6 0 10-9 10-20zm2097-227c-3-10-5-4-5 12 0 17 2 24 5 18 2-7 2-21 0-30zm-2109-76c4-30-12-57-34-57-20 0-37 38-30 67 5 19 12 24 34 21 21-2 28-9 30-31zm2199-44c9-13 13-26 9-30-3-3-6 0-7 8s-4 3-8-10c-4-14-12-26-19-29-14-4-17 66-5 108l8 25 3-24c2-14 11-35 19-48zm-60-30c-3-10-5-2-5 17s2 27 5 18c2-10 2-26 0-35zm-2143-52c20-22 9-64-20-75-33-13-55 35-34 75 13 24 32 24 54 0zm2178-106c-4-101-3-115 12-115 9 0 16-4 16-10 0-5-23-10-51-10-36 0-49 4-46 13 2 6 11 11 21 9 13-2 16 7 16 57 0 54-2 59-20 54-31-8-24 15 10 32 23 12 30 23 30 44 0 22 7 41 15 41 1 0-1-52-3-115zm-2122 91c0-3-4-8-10-11-5-3-10-1-10 4 0 6 5 11 10 11 6 0 10-2 10-4zm-69-158c2-30 3-35 6-15 6 36 23 35 23-3 0-28-2-30-37-29-21 0-32 3-25 6 15 6 16 63 1 63-5 0-7 5-4 10 3 6 13 10 21 10 10 0 14-13 15-42zm29 38c0-3-4-8-10-11-5-3-10-1-10 4 0 6 5 11 10 11 6 0 10-2 10-4zm2044-61c-4-8-8-15-10-15s-4 7-4 15 4 15 10 15c5 0 7-7 4-15zm-1709-236c9-28-8-45-25-25-13 17-7 46 9 46 5 0 13-9 16-21zm1745-12c0-7-7-22-15-33-16-20-16-18 0 31 5 18 15 20 15 2zm-1830-42c0-8-2-15-4-15s-6 7-10 15c-3 8-1 15 4 15 6 0 10-7 10-15zm1637-57c-3-8-6-5-6 6-1 11 2 17 5 13 3-3 4-12 1-19zm153 6c0-8-5-12-10-9-6 4-8 11-5 16 9 14 15 11 15-7zm-1690-24c33-26 14-26-25 0-16 11-23 20-15 20s26-9 40-20zm1565-30c-3-5-11-10-16-10-6 0-7 5-4 10 3 6 11 10 16 10 6 0 7-4 4-10zm-1567-106c-3-27-16-27-32-1-8 13-7 20 4 27 20 12 30 3 28-26zm1542 4c10-6 3-7-20-2-19 3-42 10-50 16-10 6-3 7 20 2 19-3 42-10 50-16z"/><path d="m1874 2006c-9-23 0-79 13-84 21-6 36 39 24 71-11 29-28 35-37 13z"/><path d="m160 1275c0-23 5-35 14-35 18 0 26 22 19 49-9 35-33 25-33-14z"/><path d="m165 1157c-9-22-2-62 10-60 6 1 11 14 13 29 4 32-14 56-23 31z"/><path d="m1490 2063c0-14 39-53 54-53 5 0 2 6-7 13-9 6-23 21-31 32-9 11-16 15-16 8z"/><path d="m346 2028c-28-38-29-68-3-68 24 0 38 27 35 67l-3 38z"/><path d="m838 1869c-52-63-60-84-28-76 11 3 20 0 20-6s2-8 5-5c7 7 56 141 53 143-2 1-24-24-50-56z"/><path d="m594 1896c-3-14-3-34 1-43 6-16 8-16 26 6 23 28 21 54-3 59-12 2-19-5-24-22z"/><path d="m1656 1907c3-10 9-15 12-12s0 11-7 18c-10 9-11 8-5-6z"/><path d="m1684 1892c3-5 1-12-6-14-8-3-9-6-1-11 6-4 13 0 17 8 3 8 0 17-6 21s-8 3-4-4z"/><path d="m1719 1839c-8-15-8-19 0-15 6 4 11 2 11-5s6-4 14 6c14 20 12 35-4 35-5 0-14-10-21-21z"/><path d="m1776 1827c3-10 9-15 12-12s0 11-7 18c-10 9-11 8-5-6z"/><path d="m1871 1794c0-11 3-14 6-6 3 7 2 16-1 19-3 4-6-2-5-13z"/><path d="m426 1706c-20-44-18-50 7-31 13 9 17 22 15 42l-4 28z"/><path d="m2337 1593c-20-35-16-113 5-113 7 0 8 19 4 53-5 36-3 47 4 37 5-8 10-33 10-54 0-51 19-36 25 20 4 29 3 33-3 14-8-24-9-23-16 13-6 34-19 47-29 30z"/><path d="m270 1529c0-5 5-7 10-4 6 3 10 8 10 11 0 2-4 4-10 4-5 0-10-5-10-11z"/><path d="m2260 1170c0-13 5-20 13-17 6 2 12 10 12 17s-6 15-12 18c-8 2-13-5-13-18z"/><path d="m275 1170c3-5 8-10 11-10 2 0 4 5 4 10 0 6-5 10-11 10-5 0-7-4-4-10z"/><path d="m2259 1133c0-5-2-28-4-52-4-54 11-42 21 17 4 28 3 42-5 42-6 0-11-3-12-7z"/><path d="m2217 1123c-4-3-7-11-7-17s5-5 12 2c6 6 9 14 7 17-3 3-9 2-12-2z"/><path d="m2197 1070c-3-13 0-20 8-20 21 0 27 16 11 29-11 9-15 7-19-9z"/><path d="m2151 1024c0-11 3-14 6-6 3 7 2 16-1 19-3 4-6-2-5-13z"/><path d="m2180 1021c0-12-5-21-10-21-6 0-5-8 2-20 12-18 14-18 31-3 22 20 19 57-5 61-13 2-18-3-18-17z"/><path d="m370 919c0-16 4-28 9-25 8 5 3 56-5 56-2 0-4-14-4-31z"/><path d="m2146 762c-21-24-18-65 5-70 20-4 30 28 20 64-6 25-7 25-25 6z"/><path d="m322 748c-13-13-16-75-6-102 8-21 50-21 58 0 9 24 7 73-4 95-12 22-30 25-48 7z"/></g></svg>
