<?xml version="1.0" standalone="no"?>
<!DOCTYPE svg PUBLIC "-//W3C//DTD SVG 20010904//EN"
 "http://www.w3.org/TR/2001/REC-SVG-20010904/DTD/svg10.dtd">
<svg version="1.0" xmlns="http://www.w3.org/2000/svg"
 width="256.000000pt" height="256.000000pt" viewBox="0 0 256.000000 256.000000"
 preserveAspectRatio="xMidYMid meet">
<metadata>
Created by potrace 1.11, written by Peter Selinger 2001-2013
</metadata>
<g transform="translate(0.000000,256.000000) scale(0.100000,-0.100000)"
fill="#000000" stroke="none">
<path d="M1160 2482 c0 -4 -15 -8 -32 -9 -18 -1 -44 -4 -58 -6 -14 -3 -35 -5
-48 -6 -13 0 -21 -5 -18 -10 4 -5 -3 -7 -14 -4 -11 3 -26 0 -33 -6 -8 -6 -17
-8 -20 -4 -4 3 -16 -2 -27 -12 -11 -10 -20 -13 -20 -7 0 7 -14 4 -35 -8 -20
-11 -42 -20 -51 -20 -8 0 -12 -4 -9 -10 3 -6 -1 -7 -9 -4 -10 4 -16 1 -16 -7
0 -7 -3 -9 -7 -6 -3 4 -12 2 -20 -4 -7 -6 -13 -8 -13 -5 0 4 -7 0 -16 -8 -8
-9 -20 -14 -25 -11 -5 4 -9 2 -9 -3 0 -5 -20 -19 -45 -32 -24 -12 -42 -27 -39
-31 3 -5 -3 -9 -13 -9 -10 0 -25 -9 -33 -20 -8 -11 -18 -20 -23 -20 -5 0 -21
-13 -37 -30 -15 -16 -31 -26 -35 -22 -5 4 -5 -1 -2 -10 3 -10 3 -17 -1 -17
-21 3 -32 -2 -26 -13 5 -8 2 -9 -10 -5 -9 4 -15 3 -11 -2 3 -6 -3 -14 -12 -20
-10 -6 -14 -11 -8 -11 5 0 -7 -15 -27 -34 -20 -19 -34 -37 -30 -40 3 -3 0 -6
-7 -6 -8 0 -11 -6 -7 -16 3 -8 2 -13 -3 -10 -12 8 -63 -72 -55 -86 4 -7 3 -8
-4 -4 -7 4 -12 2 -12 -4 0 -6 -5 -8 -12 -4 -6 4 -8 3 -5 -3 7 -12 -14 -63 -26
-63 -5 0 -5 -4 -2 -10 3 -5 2 -10 -2 -10 -5 0 -9 -10 -10 -22 -1 -11 -7 -24
-14 -28 -6 -4 -9 -12 -5 -18 3 -6 2 -12 -3 -14 -5 -1 -11 -12 -13 -23 -1 -11
-6 -22 -10 -25 -4 -3 -8 -17 -10 -30 -2 -14 -7 -31 -11 -37 -5 -7 -5 -17 -2
-23 3 -5 2 -10 -4 -10 -5 0 -8 -14 -6 -30 3 -18 0 -28 -5 -25 -9 6 -12 -15
-13 -82 0 -13 -4 -23 -10 -23 -5 0 -4 -6 2 -14 7 -8 8 -17 3 -20 -10 -6 -10
-185 0 -202 4 -5 3 -16 -2 -24 -5 -8 -4 -22 1 -32 6 -10 7 -23 4 -28 -3 -6 -1
-10 6 -10 8 0 9 -4 0 -13 -8 -10 -7 -17 1 -25 7 -7 8 -12 4 -12 -5 0 -3 -6 3
-14 6 -8 13 -28 14 -45 1 -17 6 -31 10 -31 5 0 5 -4 2 -10 -3 -5 0 -10 7 -10
9 0 9 -3 -2 -10 -13 -8 -8 -14 11 -12 3 1 6 -5 6 -13 0 -8 -5 -11 -11 -8 -6 4
-5 -1 2 -10 8 -9 11 -21 7 -27 -4 -6 -1 -9 6 -8 7 2 14 -6 16 -17 5 -26 25
-68 38 -77 6 -5 4 -8 -5 -8 -10 0 -7 -5 8 -16 12 -8 22 -26 22 -40 0 -15 6
-24 16 -24 8 0 12 -5 9 -10 -3 -6 -1 -10 4 -10 6 0 11 -9 11 -20 0 -12 7 -20
16 -20 9 0 14 -6 12 -12 -5 -14 20 -43 35 -43 6 0 11 -8 13 -18 1 -10 12 -26
23 -36 12 -10 21 -24 21 -30 0 -6 8 -15 17 -18 29 -11 64 -46 59 -60 -3 -7 1
-10 10 -6 7 3 14 0 14 -6 0 -6 6 -11 13 -11 7 0 19 -9 27 -20 8 -11 20 -20 27
-20 7 0 13 -5 13 -11 0 -5 -5 -7 -12 -3 -7 4 -8 3 -4 -5 4 -6 12 -9 17 -5 6 3
17 -2 25 -12 9 -11 13 -13 9 -7 -4 9 -1 11 9 7 15 -6 20 -17 17 -36 0 -5 3 -8
9 -8 5 0 10 6 10 13 0 8 3 8 8 1 4 -6 15 -13 25 -17 10 -4 15 -12 12 -17 -4
-6 -3 -9 2 -8 4 1 19 -4 32 -11 13 -7 21 -8 17 -2 -5 7 -1 8 9 5 9 -4 14 -13
10 -22 -4 -12 -3 -13 10 -2 11 9 15 9 15 1 0 -7 4 -9 10 -6 6 3 10 1 10 -5 0
-6 6 -10 13 -9 27 3 47 -2 47 -12 0 -5 -5 -7 -12 -3 -6 4 -8 3 -5 -3 4 -6 18
-8 32 -5 15 2 25 0 25 -7 0 -6 5 -11 11 -11 5 0 7 6 3 12 -6 10 -4 11 7 1 7
-7 24 -13 37 -13 13 0 21 -4 18 -8 -2 -4 3 -13 13 -19 14 -9 18 -8 18 3 0 7
-5 10 -10 7 -6 -3 -7 -1 -3 5 10 17 26 15 26 -3 0 -8 5 -15 11 -15 5 0 7 4 4
10 -3 6 1 7 9 4 9 -3 13 -11 9 -18 -4 -6 2 -4 12 4 11 9 16 10 11 3 -4 -7 -3
-13 3 -13 5 0 12 6 14 13 4 9 6 9 6 0 1 -17 28 -17 34 0 4 7 6 6 6 -5 1 -9 -5
-18 -11 -21 -7 -2 6 -4 29 -3 23 0 45 5 49 9 5 4 1 5 -9 1 -9 -3 -17 -2 -17 4
0 9 69 6 79 -4 2 -2 10 1 18 8 11 9 13 8 11 -2 -2 -7 3 -15 10 -17 8 -3 10 2
6 14 -5 17 -5 17 9 1 8 -10 17 -15 20 -11 4 3 1 13 -6 21 -11 13 -9 14 10 2
16 -10 19 -18 12 -26 -7 -8 -6 -14 1 -19 6 -4 9 -1 8 7 -2 9 7 12 27 11 17 0
24 1 18 4 -7 2 -13 9 -13 14 0 4 7 6 15 3 8 -3 20 -2 27 2 19 12 48 15 48 5 0
-5 7 -11 15 -15 13 -5 14 -2 4 17 -9 18 -9 20 1 10 11 -10 16 -9 27 5 14 16
14 16 9 0 -4 -12 -1 -15 11 -11 10 4 14 2 10 -4 -3 -5 0 -10 8 -10 12 0 12 4
-2 20 -10 11 -13 17 -6 14 6 -4 15 -2 18 3 5 8 13 6 25 -5 12 -11 20 -13 25
-5 10 16 25 2 19 -18 -5 -14 -4 -14 4 -2 15 20 -5 45 -23 30 -9 -8 -14 -7 -18
3 -5 14 21 16 54 2 9 -3 22 1 30 11 8 10 9 15 2 11 -6 -4 -15 -2 -19 4 -4 7
-3 9 4 5 6 -3 13 -2 17 3 3 6 12 8 20 4 8 -3 15 1 15 8 0 7 3 9 6 6 4 -3 16
-1 28 5 11 7 24 11 29 10 4 -1 7 3 7 9 0 5 5 7 10 4 6 -4 7 -11 4 -17 -4 -7
-2 -8 5 -4 6 4 9 11 6 16 -3 5 -1 11 5 15 5 3 10 1 10 -4 0 -6 4 -11 10 -11 5
0 7 6 4 14 -7 17 12 30 28 20 18 -11 48 -12 42 -2 -4 5 -12 7 -20 4 -8 -3 -14
-1 -14 4 0 6 8 10 18 10 14 0 15 2 3 9 -23 15 32 25 57 12 14 -8 23 -8 27 -1
4 6 3 10 -2 9 -19 -3 -31 2 -37 16 -5 13 -2 14 15 4 12 -6 19 -7 16 -2 -7 10
28 44 48 47 17 2 49 36 35 36 -6 0 -8 5 -4 11 4 8 12 3 20 -12 l14 -24 -4 28
c-4 23 -2 26 8 18 14 -11 26 -5 26 13 0 6 -5 4 -10 -4 -5 -8 -10 -11 -10 -7 0
14 32 57 43 57 7 0 7 -4 -1 -12 -15 -15 -15 -28 -1 -28 5 0 8 4 4 9 -3 5 -1
12 5 16 6 4 8 10 5 14 -2 5 2 17 10 27 13 19 14 19 30 -1 16 -20 16 -20 5 3
-11 22 -3 29 16 14 5 -4 1 0 -8 10 -25 23 -22 31 5 17 20 -11 21 -11 8 4 -11
14 -11 18 3 23 9 3 13 11 9 17 -3 6 -1 7 5 3 7 -4 12 -2 12 4 0 6 5 8 13 4 9
-6 9 -5 0 8 -13 15 -8 28 11 28 6 0 4 -5 -4 -10 -8 -5 -10 -10 -4 -10 19 0 24
13 11 28 -10 13 -9 14 2 7 11 -6 13 -4 8 7 -7 21 3 31 18 18 9 -8 11 -4 8 14
-3 13 1 27 8 31 8 5 10 4 5 -3 -5 -8 -2 -10 9 -6 14 6 14 7 -1 18 -14 11 -14
13 0 25 8 7 21 9 28 5 9 -6 9 -3 -1 9 -8 10 -12 19 -10 21 2 2 13 9 24 15 14
9 15 11 3 7 -12 -3 -15 -1 -11 10 3 7 9 14 14 14 5 0 7 11 5 25 -3 14 -1 23 5
20 5 -4 9 -1 9 5 0 6 6 8 13 5 6 -4 3 1 -7 9 -19 16 -19 16 5 16 13 0 20 4 14
8 -5 4 -11 15 -11 25 -2 18 -1 18 19 0 l20 -18 -19 30 c-17 26 -17 28 -2 22
10 -3 20 -2 23 4 4 5 1 8 -6 7 -8 -2 -14 8 -14 24 -1 21 2 25 12 16 8 -6 16
-8 20 -4 3 3 2 6 -4 6 -6 0 -13 9 -16 21 -4 16 -2 19 11 14 14 -5 15 -4 5 6
-15 15 -17 33 -3 24 6 -3 10 -2 10 4 0 5 -6 11 -12 14 -10 4 -10 7 0 18 6 7
12 17 12 22 0 4 -6 5 -12 1 -9 -5 -9 -2 1 9 11 14 11 20 0 34 -12 14 -12 16 0
8 11 -6 13 -2 9 19 -5 25 2 31 27 26 6 -1 6 2 2 7 -5 4 -13 9 -18 9 -22 3 -23
5 -9 14 8 5 11 10 5 10 -11 0 -12 90 -1 108 4 8 0 12 -11 12 -14 0 -15 2 -4 9
9 6 10 11 2 15 -8 5 -8 13 -1 26 7 13 6 19 -3 23 -7 2 -12 22 -11 46 0 22 -3
41 -8 41 -4 0 -8 14 -8 30 0 17 -4 30 -8 30 -4 0 -9 8 -10 18 -4 33 -8 47 -24
80 -9 18 -12 30 -7 26 6 -3 5 3 -3 15 -7 12 -16 21 -21 21 -4 0 -6 4 -2 9 3 5
0 15 -7 23 -7 7 -15 22 -16 33 -2 11 -8 22 -13 23 -5 2 -9 10 -9 17 0 8 -7 21
-16 29 -8 9 -13 16 -10 16 3 0 -4 11 -15 24 -12 13 -20 27 -20 30 2 12 -24 34
-33 28 -5 -3 -6 0 -3 5 4 6 -4 22 -18 34 -13 13 -25 30 -25 37 0 7 -4 10 -10
7 -5 -3 -10 1 -10 9 0 9 -5 16 -11 16 -5 0 -7 5 -4 10 4 6 3 10 -2 9 -15 -4
-43 13 -43 25 0 7 -12 18 -26 24 -14 7 -22 17 -19 22 3 6 0 10 -8 10 -7 0 -23
9 -35 20 -12 11 -24 20 -28 20 -4 0 -14 8 -23 18 -9 10 -31 24 -48 31 -18 7
-30 18 -26 24 3 5 1 7 -5 3 -6 -3 -13 -2 -17 4 -4 6 -11 8 -16 5 -5 -4 -9 -1
-9 4 0 6 -7 11 -15 11 -8 0 -15 4 -15 8 0 4 -10 9 -22 9 -13 1 -24 7 -26 13
-2 5 -12 10 -23 10 -10 0 -19 3 -19 8 0 4 -16 12 -35 18 -19 6 -32 7 -28 1 3
-5 -6 -2 -19 7 -14 9 -28 13 -31 9 -4 -3 -7 -1 -7 6 0 7 -4 9 -10 6 -5 -3 -10
-3 -10 2 0 4 -12 8 -27 9 -16 0 -46 4 -68 9 -22 4 -49 8 -60 9 -11 1 -25 5
-32 9 -6 4 -14 3 -18 -3 -4 -6 -11 -8 -16 -4 -5 3 -21 7 -35 10 -18 3 -23 1
-18 -7 5 -8 3 -9 -7 -3 -18 11 -99 14 -99 3 0 -5 -11 -4 -25 1 -14 5 -25 6
-25 2z m525 -2360 c-3 -3 -11 0 -18 7 -9 10 -8 11 6 5 10 -3 15 -9 12 -12z
m-510 -52 c3 -5 1 -10 -4 -10 -6 0 -11 5 -11 10 0 6 2 10 4 10 3 0 8 -4 11
-10z"/>
<path d="M2190 461 c0 -6 4 -13 10 -16 6 -3 7 1 4 9 -7 18 -14 21 -14 7z"/>
<path d="M2020 305 c-7 -9 -8 -15 -2 -15 5 0 12 7 16 15 3 8 4 15 2 15 -2 0
-9 -7 -16 -15z"/>
<path d="M1936 245 c4 -8 8 -15 10 -15 2 0 4 7 4 15 0 8 -4 15 -10 15 -5 0 -7
-7 -4 -15z"/>
<path d="M1780 165 c-9 -10 -9 -15 -1 -15 6 0 11 5 11 11 0 5 5 7 12 3 7 -4 8
-3 4 4 -9 15 -11 15 -26 -3z"/>
<path d="M1720 120 c-6 -11 -8 -20 -6 -20 3 0 10 9 16 20 6 11 8 20 6 20 -3 0
-10 -9 -16 -20z"/>
<path d="M1590 105 c0 -5 5 -17 10 -25 5 -8 10 -10 10 -5 0 6 -5 17 -10 25 -5
8 -10 11 -10 5z"/>
<path d="M1457 69 c7 -7 15 -10 18 -7 3 3 -2 9 -12 12 -14 6 -15 5 -6 -5z"/>
<path d="M1530 59 c0 -5 5 -7 10 -4 6 3 10 8 10 11 0 2 -4 4 -10 4 -5 0 -10
-5 -10 -11z"/>
<path d="M1230 49 c0 -5 5 -7 10 -4 6 3 10 8 10 11 0 2 -4 4 -10 4 -5 0 -10
-5 -10 -11z"/>
</g>
</svg>
